Coordinates
version=1
nRows=8
nColumns=40
inDegrees=yes

Units are S.I. units (second, meters, Newtons, ...)
If the header above contains a line with 'inDegrees', this indicates whether rotational values are in degrees (yes) or radians (no).

endheader
time	pelvis_tilt	pelvis_list	pelvis_rotation	pelvis_tx	pelvis_ty	pelvis_tz	hip_flexion_r	hip_adduction_r	hip_rotation_r	knee_angle_r	knee_angle_r_beta	ankle_angle_r	subtalar_angle_r	mtp_angle_r	hip_flexion_l	hip_adduction_l	hip_rotation_l	knee_angle_l	knee_angle_l_beta	ankle_angle_l	subtalar_angle_l	mtp_angle_l	lumbar_extension	lumbar_bending	lumbar_rotation	arm_flex_r	arm_add_r	arm_rot_r	elbow_flex_r	pro_sup_r	wrist_flex_r	wrist_dev_r	arm_flex_l	arm_add_l	arm_rot_l	elbow_flex_l	pro_sup_l	wrist_flex_l	wrist_dev_l
      8.73000000000000042633	     34.79811623344880899822	      0.03816491126985901289	   -177.07806718270990131714	      0.37929354737067472181	      0.84637887839468706197	     -0.55841665025196851602	     81.00257348126785927889	    -14.39199099086045841034	     -3.46126583356425987503	     52.90600663408118009556	      0.92338400984667945437	      7.53960908422127484840	      0.00000000000000000000	      0.00000000000000000000	     80.48456843704575192078	     -2.85874011677982720059	     -0.39832187691921688844	     52.99294134021548074998	      0.92490130670297665549	      6.09751049595029925854	      0.00000000000000000000	      0.00000000000000000000	    -28.65615679368405110949	      4.60069950769457047812	     -0.80465128328311463779	     49.30601582788718673100	    -15.47083827233393193978	     31.80186195024114681473	     18.33545350983024846414	     89.05957751145049883235	      0.00000000000000000000	      0.00000000000000000000	     53.91583018592336173924	    -12.18378112043921035479	     58.56687576780482373806	     19.69077927473211886422	     86.11541400734657258909	      0.00000000000000000000	      0.00000000000000000000
      8.73499999999999943157	     34.74535375573148598960	      0.03758032779319182837	   -177.08483755185463337511	      0.37864505588551122806	      0.84726793179318826699	     -0.55834018504012905559	     80.85810389967758737839	    -14.37562157759626657594	     -3.46614335922936911416	     52.86595835387510788905	      0.92268503549732217017	      7.49446058431507733388	      0.00000000000000000000	      0.00000000000000000000	     80.33250754346100563907	     -2.87628036441625933861	     -0.40473976522655930044	     52.94484028660358632123	      0.92406178494377078092	      6.05717637265153019399	      0.00000000000000000000	      0.00000000000000000000	    -28.40733055245964067126	      4.59714400839501102780	     -0.83303235790201435318	     49.04113098240678425555	    -15.44413971458709156082	     31.84451896689971661658	     18.28266510421608970205	     89.06829164008854604617	      0.00000000000000000000	      0.00000000000000000000	     53.68402702868766596112	    -12.18750296084289708176	     58.60307256469472747540	     19.65182312270885134353	     86.11877012054341662406	      0.00000000000000000000	      0.00000000000000000000
      8.74000000000000021316	     34.84083650528453546258	      0.02404741844131877068	   -177.08003628447394817158	      0.37828784563961520560	      0.84847914239428123828	     -0.55809089571548520237	     80.76516040190243472807	    -14.40350787642068475236	     -3.55290743482769499906	     52.54494751699120769217	      0.91708233945911565854	      7.28596962436920492223	      0.00000000000000000000	      0.00000000000000000000	     80.17267881023659015227	     -2.90094721995216531241	     -0.56719424633805548552	     52.54811063971663287475	      0.91713754636531907849	      5.92015621212848763832	      0.00000000000000000000	      0.00000000000000000000	    -28.05251102862576573216	      4.60109382222148877162	     -0.87777834564723133948	     48.78855830999200549059	    -15.47009292184337780895	     31.92512220770478492682	     18.36891612006485985376	     89.06044393936433323233	      0.00000000000000000000	      0.00000000000000000000	     53.46309570561589197268	    -12.16486549026842922672	     58.64266238777852180419	     19.61323336630276870096	     86.11693003808689184098	      0.00000000000000000000	      0.00000000000000000000
      8.74499999999999921840	     34.79165769507753225298	      0.02425453262194084483	   -177.08364836701196054491	      0.37763602402766899280	      0.84936732855818164456	     -0.55800344894473574708	     80.63893985009386256024	    -14.39587152141928605431	     -3.54692280231847512084	     52.51765367837460019018	      0.91660597210974792404	      7.21796228039332454784	      0.00000000000000000000	      0.00000000000000000000	     80.00672979826303787831	     -2.92151615096087580170	     -0.57968170030804189174	     52.47724751237597473619	      0.91590075147496452512	      5.88008300335703637529	      0.00000000000000000000	      0.00000000000000000000	    -27.79410426566226277600	      4.60214858131493986804	     -0.90426835687841000677	     48.53943134879040144369	    -15.44446288622647678324	     31.96573463100442680229	     18.31985757044513718483	     89.06778582535110899698	      0.00000000000000000000	      0.00000000000000000000	     53.20326370691937256652	    -12.15533655957707637185	     58.68823311077660065394	     19.57300540693814028259	     86.12092361609768431663	      0.00000000000000000000	      0.00000000000000000000
      8.75000000000000000000	     34.91070689263870008290	     -0.03061786883135272225	   -177.07858661314830328593	      0.37727499280844523089	      0.85049122920328645847	     -0.55780360560297992389	     80.62132344553647556040	    -14.46798730392710119474	     -3.64511255485604346305	     52.27893159269356715413	      0.91243948571738586750	      6.91490440051457255777	      0.00000000000000000000	      0.00000000000000000000	     79.83453302058970280086	     -2.92623167595594635415	     -0.76006959572978061157	     52.02311171341846574023	      0.90797458653198093170	      5.79384091077625296151	      0.00000000000000000000	      0.00000000000000000000	    -27.40353225054057162424	      4.55470655711154037704	     -0.95840125807039344696	     48.29022691849575465994	    -15.44845358941314650281	     32.06684303202440133873	     18.35025328241653497230	     89.06192891285206769680	      0.00000000000000000000	      0.00000000000000000000	     52.96259543411205328312	    -12.12621363587417988583	     58.75146095591012596060	     19.52401373516106275474	     86.12403266602171925115	      0.00000000000000000000	      0.00000000000000000000
      8.75500000000000078160	     34.87015145753824896246	     -0.03776523886216323622	   -177.08322847964387847242	      0.37662418530533842143	      0.85136564336494013894	     -0.55776068221608399167	     80.49074042247632121416	    -14.47463231689404494773	     -3.64627803619643664490	     52.24692128249216693803	      0.91188080040978669594	      6.84681999003202257370	      0.00000000000000000000	      0.00000000000000000000	     79.67237520398499839303	     -2.94198824749269283174	     -0.77266478844739105991	     51.95406031805249114086	      0.90676941232974839213	      5.75875400570472528727	      0.00000000000000000000	      0.00000000000000000000	    -27.13327787626345966032	      4.53561152157550928621	     -0.98143109731163125087	     48.03388437992100534757	    -15.41339008773953800358	     32.11569807495570927358	     18.28570745000505226585	     89.06889854660141736531	      0.00000000000000000000	      0.00000000000000000000	     52.68904154265165118431	    -12.12614969702652700789	     58.79947044800444189150	     19.47908622839297620999	     86.12890986033234241859	      0.00000000000000000000	      0.00000000000000000000
      8.75999999999999978684	     35.02711037146336536807	     -0.11724728096416370260	   -177.08443276482890382795	      0.37632420102864350131	      0.85235849043613909348	     -0.55764729097294907234	     80.47088978912508139274	    -14.57160849645753408765	     -3.80818137569977777090	     51.93814827850302151546	      0.90649169484890257387	      6.63780535689945150324	      0.00000000000000000000	      0.00000000000000000000	     79.53087587770798450038	     -2.94282140893412513805	     -0.98634378834662983504	     51.48133752395073514663	      0.89851884312344543204	      5.70536023171670070298	      0.00000000000000000000	      0.00000000000000000000	    -26.68537222914972417698	      4.44987548644458108527	     -1.05695607877900243921	     47.80102836469191629476	    -15.38129557082531917445	     32.26045281161683675464	     18.25045799095958187763	     89.06238377454148746892	      0.00000000000000000000	      0.00000000000000000000	     52.41506626954125636075	    -12.13338235204234472064	     58.85524991732077637607	     19.44476567965273261507	     86.13298780655101438697	      0.00000000000000000000	      0.00000000000000000000
      8.76500000000000056843	     34.99256316800452992766	     -0.12241541009171862109	   -177.07931589127795746208	      0.37572510467934377987	      0.85316770327921753747	     -0.55769910816239665063	     80.32460292374139498861	    -14.58052918546117204812	     -3.80561467362579364249	     51.88209127646985763249	      0.90551331559462666654	      6.57639820657385953950	      0.00000000000000000000	      0.00000000000000000000	     79.38455587655860767882	     -2.95090288697264835349	     -0.99539233381933589495	     51.40943690920350661600	      0.89726394066189840704	      5.66245841170036445789	      0.00000000000000000000	      0.00000000000000000000	    -26.39633111945178001179	      4.41710167052390634268	     -1.08291340465594188025	     47.52757721476905317104	    -15.33369524492183089137	     32.32441533337640748869	     18.17301137681529965562	     89.06992405988472683021	      0.00000000000000000000	      0.00000000000000000000	     52.14599135679597452508	    -12.13745669665599713483	     58.89821344667993940902	     19.40737019448141253974	     86.13706461502835054489	      0.00000000000000000000	      0.00000000000000000000
